<svg xmlns="http://www.w3.org/2000/svg" width="32" height="32" viewBox="0 0 32 32">
  <defs>
    <linearGradient id="brandGradient" x1="0%" y1="0%" x2="100%" y2="100%">
      <stop offset="0%" style="stop-color:#3b82f6" />
      <stop offset="50%" style="stop-color:#6366f1" />
      <stop offset="100%" style="stop-color:#8b5cf6" />
    </linearGradient>
    <linearGradient id="accentGradient" x1="0%" y1="100%" x2="0%" y2="0%">
      <stop offset="0%" style="stop-color:#10b981" />
      <stop offset="100%" style="stop-color:#34d399" />
    </linearGradient>
  </defs>
  
  <!-- Rounded square background -->
  <rect x="2" y="2" width="28" height="28" rx="6" ry="6" fill="url(#brandGradient)"/>
  
  <!-- Stylized "E" with building hint -->
  <path d="M8 8h10v3.5H12v3h5v3h-5v3h6v3.5H8V8z" fill="white" opacity="0.95"/>
  
  <!-- Growth arrow accent -->
  <path d="M20 14l4-4v3h2v-6h-6v2h3l-4 4" fill="url(#accentGradient)" opacity="0.9"/>
  
  <!-- Subtle shine -->
  <path d="M4 6c0-1.1.9-2 2-2h8c-4 4-6 10-6 16H6c-1.1 0-2-.9-2-2V6z" fill="white" opacity="0.1"/>
</svg>
